<svg xmlns="http://www.w3.org/2000/svg" viewBox="0 0 78.82 75.09"><defs><style>.cls-1{isolation:isolate;}.cls-2{opacity:0.79;}.cls-3,.cls-4{opacity:0.82;mix-blend-mode:multiply;}.cls-5{opacity:0.85;font-size:37px;font-family:AmericanTypewriter, American Typewriter;letter-spacing:-0.01em;}.cls-6{letter-spacing:-0.01em;}.cls-7{letter-spacing:0em;}.cls-8{letter-spacing:0.01em;}</style></defs><g class="cls-1"><g id="Layer_2" data-name="Layer 2"><g id="Layer_1-2" data-name="Layer 1"><g class="cls-2"><path class="cls-3" d="M53,52.43a3.14,3.14,0,0,0,1.64-1.21,4,4,0,0,0,.58-2.32,4.35,4.35,0,0,0-.53-2.26,2.79,2.79,0,0,0-1.39-1.25,9.94,9.94,0,0,0-3.13-.34H46v7.62h4.48A9.1,9.1,0,0,0,53,52.43Z"/><path class="cls-3" d="M53.89,56.1a8,8,0,0,0-3.11-.45H46v8.66h5.15A7.47,7.47,0,0,0,53.66,64a3.37,3.37,0,0,0,1.78-1.47A4.91,4.91,0,0,0,56.05,60a4.56,4.56,0,0,0-.59-2.41A3.48,3.48,0,0,0,53.89,56.1Z"/><g class="cls-4"><path d="M75,41.47c-.6-2.48-4.08-4.74-7.53-5a429.94,429.94,0,0,0-58.32,0c-3.45.25-6.93,2.51-7.53,5a60,60,0,0,0,0,27.64c.6,2.48,4.08,4.74,7.53,5a429.94,429.94,0,0,0,58.32,0c3.45-.25,6.93-2.51,7.53-5A60,60,0,0,0,75,41.47ZM32.55,67.29H18.87a8.56,8.56,0,0,1,1.09-4A22.77,22.77,0,0,1,24.15,58a29.53,29.53,0,0,0,4.66-5.48,7.3,7.3,0,0,0,1.1-3.61,4.44,4.44,0,0,0-1.12-3.14,3.84,3.84,0,0,0-5.69.1A5.61,5.61,0,0,0,22,49.59l-2.62-.33a8.55,8.55,0,0,1,2.06-5.46A6.25,6.25,0,0,1,26.1,42a5.66,5.66,0,0,1,4.79,2.13A7.81,7.81,0,0,1,32.51,49a9.12,9.12,0,0,1-1.27,4.62,34.4,34.4,0,0,1-4.83,5.89c-1.52,1.55-2.5,2.6-2.94,3.17a9.24,9.24,0,0,0-1.07,1.68H32.55ZM57.93,64a5.8,5.8,0,0,1-2.5,2.52,9.78,9.78,0,0,1-4.3.78H43.25V42.07H51a8,8,0,0,1,3.74.74A5.53,5.53,0,0,1,57,45.08a6.75,6.75,0,0,1,.88,3.42,6.39,6.39,0,0,1-.76,3.13A5.87,5.87,0,0,1,55,53.87a5.59,5.59,0,0,1,2.84,2.22,6.94,6.94,0,0,1,1,3.89A8.22,8.22,0,0,1,57.93,64Z"/></g></g><text class="cls-5" transform="translate(1.01 30.91)">N<tspan class="cls-6" x="27.83" y="0">i</tspan><tspan class="cls-7" x="39" y="0">c</tspan><tspan class="cls-8" x="57.9" y="0">e</tspan></text></g></g></g></svg>