<svg xmlns="http://www.w3.org/2000/svg" viewBox="0 0 94 15.36"><defs><style>.cls-1{fill:#099;}.cls-2{fill:#ffdb58;}.cls-3{fill:#ff8c69;}</style></defs><g id="Layer_2" data-name="Layer 2"><g id="Layer_1-2" data-name="Layer 1"><path class="cls-1" d="M.19,10.5V9h7.5V7.5h-6V6H.19V4.5h1.5V3h7.5V4.5h-6V6h6V7.5h1.5V9H9.19v1.5Z"/><path class="cls-1" d="M12.49,10.5V0h3V6h3V4.5H20V3h3V4.5h-1.5V6H20V7.5h1.5V9H23v1.5H20V9h-1.5V7.5h-3v3Z"/><path class="cls-1" d="M24.79,10.5V3h9V4.5h1.5v6h-3v-6h-4.5v6Z"/><path class="cls-1" d="M38.59,10.5V9h-1.5V4.5h1.5V3h7.5V4.5h1.5V9h-1.5v1.5ZM40.09,9h4.5V4.5h-4.5Z"/><path class="cls-1" d="M52.39,9h1.5v1.5h-3V9h-1.5V3h3Zm3-6V9h-1.5V3Zm4.5,0V9h-1.5v1.5h-3V9h1.5V3Z"/><path class="cls-2" d="M64.69,10.5v-3h3v3Z"/><path class="cls-2" d="M74,10.5V9h3V4.5h-1.5V3H80V9h3v1.5Zm3-9V0h3V1.5Z"/><path class="cls-2" d="M87.79,10.5v-6h-3V3h3V0h3V3h3V4.5h-3v6Z"/><rect class="cls-3" x="12" y="14.36" width="48" height="1"/><rect class="cls-1" x="60" y="14.36" width="34" height="1"/><rect class="cls-2" y="14.36" width="12" height="1"/></g></g></svg>